<svg id="_0331_shopping_cart" xmlns="http://www.w3.org/2000/svg" viewBox="0 0 500 500" data-imageid="shopping-cart-99" imageName="Shopping Cart" class="illustrations_image" style="width: 166px;"><defs><style>.cls-1_shopping-cart-99{fill:#fff;}.cls-2_shopping-cart-99{fill:#f4a28c;}.cls-3_shopping-cart-99{opacity:.43;}.cls-3_shopping-cart-99,.cls-4_shopping-cart-99,.cls-5_shopping-cart-99,.cls-6_shopping-cart-99,.cls-7_shopping-cart-99,.cls-8_shopping-cart-99,.cls-9_shopping-cart-99,.cls-10_shopping-cart-99,.cls-11_shopping-cart-99{fill:none;}.cls-12_shopping-cart-99{fill:#a5a5a5;}.cls-4_shopping-cart-99{opacity:.58;}.cls-13_shopping-cart-99{fill:#ce8172;}.cls-5_shopping-cart-99{opacity:.44;}.cls-14_shopping-cart-99{fill:#e6e6e6;}.cls-6_shopping-cart-99{opacity:.03;}.cls-7_shopping-cart-99{opacity:.73;}.cls-8_shopping-cart-99{opacity:.08;}.cls-9_shopping-cart-99{opacity:.31;}.cls-15_shopping-cart-99{fill:#24285b;}.cls-16_shopping-cart-99{fill:#000001;}.cls-10_shopping-cart-99{opacity:.3;}.cls-11_shopping-cart-99{opacity:.61;}.cls-17_shopping-cart-99{fill:#ffd200;}.cls-18_shopping-cart-99{fill:#68e1fd;}</style></defs><g id="bg_shopping-cart-99" class="cls-10_shopping-cart-99"><ellipse class="cls-14_shopping-cart-99" cx="246.4" cy="189.26" rx="199.53" ry="180.77"/><path class="cls-14_shopping-cart-99" d="m246.4,370.52c-110.3,0-200.03-81.32-200.03-181.27S136.11,7.99,246.4,7.99s200.03,81.32,200.03,181.27-89.73,181.27-200.03,181.27Zm0-361.53c-109.75,0-199.03,80.87-199.03,180.27s89.29,180.27,199.03,180.27,199.03-80.87,199.03-180.27S356.15,8.99,246.4,8.99Z"/></g><g id="sd_shopping-cart-99" class="cls-6_shopping-cart-99"><ellipse class="cls-16_shopping-cart-99" cx="250" cy="459.8" rx="229.51" ry="31.7"/></g><g id="cart_shopping-cart-99"><rect class="cls-12_shopping-cart-99" x="382.82" y="351.64" width="61.02" height="34.87"/><rect class="cls-17_shopping-cart-99" x="328.37" y="322.09" width="71.68" height="64.42"/><path class="cls-15_shopping-cart-99" d="m442.45,388.01h-115.52c-.74,0-1.37-.54-1.48-1.27l-14.09-105.59c-.64-4.2-4.18-7.24-8.43-7.24h-15.8c-.83,0-1.5-.67-1.5-1.5s.67-1.5,1.5-1.5h15.8c5.73,0,10.52,4.11,11.39,9.78l13.89,104.32h114.24c5.15,0,9.59-3.49,10.81-8.5l17.26-71.15c.2-.8,1.01-1.3,1.81-1.1.8.19,1.3,1,1.1,1.81l-17.26,71.15c-1.54,6.35-7.18,10.78-13.71,10.78Z"/><rect class="cls-14_shopping-cart-99" x="361.38" y="291.1" width="38.67" height="31"/><g class="cls-3_shopping-cart-99"><rect class="cls-14_shopping-cart-99" x="398.66" y="308.05" width="45.18" height="43.59"/></g><path class="cls-15_shopping-cart-99" d="m449.21,424.78h-102.71c-8.58,0-15.79-6.15-17.16-14.62l-5.98-37.1c-.13-.82.42-1.58,1.24-1.71.81-.13,1.58.42,1.71,1.24l5.98,37.1c1.13,7.01,7.1,12.1,14.21,12.1h102.71c.83,0,1.5.67,1.5,1.5s-.67,1.5-1.5,1.5Z"/><circle class="cls-18_shopping-cart-99 targetColor" cx="351.79" cy="436.63" r="8.53" style="fill: rgb(104, 225, 253);"/><circle class="cls-18_shopping-cart-99 targetColor" cx="435.3" cy="436.63" r="8.53" style="fill: rgb(104, 225, 253);"/><g class="cls-11_shopping-cart-99"><rect class="cls-1_shopping-cart-99" x="356.27" y="322.09" width="14.13" height="20.91"/></g><g id="plant_shopping-cart-99"><g class="cls-4_shopping-cart-99"><path class="cls-18_shopping-cart-99 targetColor" d="m375,271.66s-15.44-4.22-18.8-18.59c0,0,23.93-4.84,24.61,19.86l-5.81-1.27Z" style="fill: rgb(104, 225, 253);"/></g><g class="cls-7_shopping-cart-99"><path class="cls-18_shopping-cart-99 targetColor" d="m376.89,270.13s-10.79-17.06-1.29-33.01c0,0,18.19,11.55,10.11,33.04l-8.82-.04Z" style="fill: rgb(104, 225, 253);"/></g><path class="cls-18_shopping-cart-99 targetColor" d="m379.67,270.14s5.7-18.01,22.93-21.43c0,0,3.23,11.7-11.16,21.48l-11.77-.05Z" style="fill: rgb(104, 225, 253);"/><polygon class="cls-15_shopping-cart-99" points="368.47 269.74 371.6 291.16 391.32 291.24 394.22 269.85 368.47 269.74"/></g></g><g id="person_shopping-cart-99"><path class="cls-2_shopping-cart-99" d="m296.62,263.82s10.64-9.35,16-1.93c5.35,7.42-1.73,12.31-11.02,12.8s-4.97-10.87-4.97-10.87Z"/><g class="cls-8_shopping-cart-99"><path class="cls-16_shopping-cart-99" d="m296.62,263.82s10.64-9.35,16-1.93c5.35,7.42-1.73,12.31-11.02,12.8s-4.97-10.87-4.97-10.87Z"/></g><path class="cls-18_shopping-cart-99 targetColor" d="m196.63,223.35s10.3,43.63,38.69,44.95c28.38,1.33,60.15-12.88,60.15-12.88l5.58,17.47-77.76,21.07s-49.38-25.4-50.02-28.38c-.63-2.98,23.36-42.23,23.36-42.23Z" style="fill: rgb(104, 225, 253);"/><g class="cls-8_shopping-cart-99"><path class="cls-16_shopping-cart-99" d="m196.63,223.35s10.3,43.63,38.69,44.95c28.38,1.33,60.15-12.88,60.15-12.88l5.58,17.47-77.76,21.07s-49.38-25.4-50.02-28.38c-.63-2.98,23.36-42.23,23.36-42.23Z"/></g><path class="cls-18_shopping-cart-99 targetColor" d="m191.84,432.81s5.81,4.66,11.48,1.81c5.67-2.85,10.32,1.56,6.31,5.91-4.01,4.35-20.34,5.77-20.34,5.77l-6.32-9.86,8.87-3.63Z" style="fill: rgb(104, 225, 253);"/><path class="cls-18_shopping-cart-99 targetColor" d="m42.65,400.17s-7.38.95-9.27,7.01c-1.89,6.06-8.29,6.34-8.63.44-.35-5.9,9.96-18.65,9.96-18.65l11.48,2.29-3.54,8.91Z" style="fill: rgb(104, 225, 253);"/><polygon class="cls-2_shopping-cart-99" points="162.6 123.58 149.92 153.79 167.58 163.7 170.18 136.61 162.6 123.58"/><g class="cls-9_shopping-cart-99"><path class="cls-13_shopping-cart-99" d="m169.87,142.57s-3.43-1.62-5.41-5.32c0,0-1.31,6.55,4.25,14.7l1.16-9.37Z"/></g><path class="cls-2_shopping-cart-99" d="m178.56,122.14s1.88,10.98.63,18.49c-.51,3.05-3.43,5.13-6.47,4.58-3.77-.68-8.68-2.7-10.4-8.46l-4.12-9.42s-2.38-5.99,3.51-11.01c5.88-5.02,16.05-.92,16.86,5.82Z"/><path class="cls-15_shopping-cart-99" d="m175.85,122.83c-1.93.26-5.49.55-10.3.06,0,0,3.87,4.54.84,10.16-3.03,5.61-8.85,3.76-8.85,3.76l-1-14.27c-.42-4.15,1.44-8.21,4.89-10.56,1.41-.96,2.98-1.93,4.57-2.72,3.97-1.99,10.21.25,13.66-2.83,1.51-1.35,3.93-.57,4.39,1.4,1,4.28.8,11.17-4.88,14.03-1.04.52-2.17.8-3.32.96Z"/><path class="cls-2_shopping-cart-99" d="m167.55,132.62s-.44-4.27-3.62-3.67c-3.18.6-2.59,6.76,1.82,6.98l1.8-3.31Z"/><path class="cls-2_shopping-cart-99" d="m179.39,129.11l3.45,4.02c.85.99.38,2.53-.88,2.88l-4.18,1.15,1.61-8.05Z"/><path class="cls-18_shopping-cart-99 targetColor" d="m178.55,167.79c-1.07-.79-2.1-1.63-3.1-2.5-6.04-5.29-27.83-22.21-50.09-12.92-26.19,10.92-14.39,25.27,8.13,27.13,64.02,5.28,50.22-7.89,45.06-11.71Z" style="fill: rgb(104, 225, 253);"/><g class="cls-5_shopping-cart-99"><path class="cls-1_shopping-cart-99" d="m178.55,167.79c-1.07-.79-2.1-1.63-3.1-2.5-6.04-5.29-27.83-22.21-50.09-12.92-26.19,10.92-14.39,25.27,8.13,27.13,64.02,5.28,50.22-7.89,45.06-11.71Z"/></g><path class="cls-18_shopping-cart-99 targetColor" d="m167.72,166.36c-24.23-9.11-51.48.57-65.92,22.05-6.9,10.26-13.03,22.93-14.46,36.78-3.61,35.04-8.58,65.9-8.58,65.9l68.17,29.81s56.63-39.59,54.22-86.56c-1.71-33.27-7.64-58.3-33.43-67.99Z" style="fill: rgb(104, 225, 253);"/><g class="cls-8_shopping-cart-99"><path class="cls-16_shopping-cart-99" d="m138.53,185.57s-25.9,28.9-14.46,80.08c11.44,51.19-18.45,37.19-18.45,37.19l41.31,18.06s20.58-16.6,25.73-23.13l5.15-6.53-39.28-105.68Z"/></g><path class="cls-18_shopping-cart-99 targetColor" d="m163.95,174.58s22.29,5.42,25,33.42c2.71,28,14.45,73.62,47.87,66.84,33.42-6.77,61.42-11.29,61.42-11.29l5.42,18.07s-93.81,54.65-139.72,9.03c-45.9-45.62-39.91-125.1,0-116.07Z" style="fill: rgb(104, 225, 253);"/><g class="cls-5_shopping-cart-99"><path class="cls-1_shopping-cart-99" d="m163.95,174.58s22.29,5.42,25,33.42c2.71,28,14.45,73.62,47.87,66.84,33.42-6.77,61.42-11.29,61.42-11.29l5.42,18.07s-93.81,54.65-139.72,9.03c-45.9-45.62-39.91-125.1,0-116.07Z"/></g><path class="cls-15_shopping-cart-99" d="m78.76,291.1s-11.29,21.23,0,29.81c11.29,8.58,87.68,73.16,102.33,116.52l15.55-6.32s-13.14-61.87-49.7-110.2l-68.17-29.81Z"/><path class="cls-15_shopping-cart-99" d="m78.76,320.91s58.26,80.84-36.58,64.13v16.71s95.7,25.74,93.01-33.42c-2.68-59.16-56.43-47.42-56.43-47.42Z"/><path class="cls-2_shopping-cart-99" d="m299.98,269.31s14.38-8.39,17.99,0c3.61,8.39-14.3,12.31-14.3,12.31l-3.69-12.31Z"/></g><g id="icon_shopping-cart-99"><rect class="cls-12_shopping-cart-99" x="276.67" y="90.39" width="127.27" height="85.51"/><path class="cls-1_shopping-cart-99" d="m362.5,115.56c-.34-.41-.84-.64-1.37-.64h-35.83s-.09,0-.14,0l-.36-3.11c-.33-2.91-2.79-5.1-5.72-5.1h-6.9c-.98,0-1.78.8-1.78,1.78s.8,1.78,1.78,1.78h6.9c1.12,0,2.06.84,2.19,1.95l2.67,23.31h0s.5,4.85.5,4.85c.39,3.77,3.54,6.61,7.33,6.61h22.69c.98,0,1.78-.8,1.78-1.78s-.8-1.78-1.78-1.78h-22.69c-1.96,0-3.59-1.47-3.8-3.42l-.3-2.89h29.97c.86,0,1.59-.61,1.75-1.45l3.48-18.65c.1-.52-.04-1.06-.38-1.46Zm-6.33,18.01h-28.88l-1.73-15.09h33.43l-2.82,15.09Z"/><circle class="cls-1_shopping-cart-99" cx="332.52" cy="155.43" r="4.14" transform="translate(-20.6 55.27) rotate(-9.22)"/><circle class="cls-1_shopping-cart-99" cx="352.49" cy="155.43" r="4.14" transform="translate(-20.35 58.47) rotate(-9.22)"/></g></svg>